HIERARCHY
ROOT Hips
{
	OFFSET -0.001795 -0.223333 0.028219
	CHANNELS 6 Xposition Yposition Zposition Zrotation Yrotation Xrotation 
	JOINT LeftUpLeg
	{
		OFFSET 0.069520 -0.091406 -0.006815
		CHANNELS 3 Zrotation Yrotation Xrotation
		JOINT LeftLeg
		{
			OFFSET 0.034277 -0.375199 -0.004496
			CHANNELS 3 Zrotation Yrotation Xrotation
			JOINT LeftFoot
			{
				OFFSET -0.013596 -0.397961 -0.043693
				CHANNELS 3 Zrotation Yrotation Xrotation
				JOINT LeftToe
				{
					OFFSET 0.026358 -0.055791 0.119288
					CHANNELS 3 Zrotation Yrotation Xrotation
					End Site
					{
						OFFSET 0.000000 0.000000 0.000000
					}
				}
			}
		}
	}
	JOINT RightUpLeg
	{
		OFFSET -0.067670 -0.090522 -0.004320
		CHANNELS 3 Zrotation Yrotation Xrotation
		JOINT RightLeg
		{
			OFFSET -0.038290 -0.382569 -0.008850
			CHANNELS 3 Zrotation Yrotation Xrotation
			JOINT RightFoot
			{
				OFFSET 0.015774 -0.398415 -0.042312
				CHANNELS 3 Zrotation Yrotation Xrotation
				JOINT RightToe
				{
					OFFSET -0.025372 -0.048144 0.123348
					CHANNELS 3 Zrotation Yrotation Xrotation
					End Site
					{
						OFFSET 0.000000 0.000000 0.000000
					}
				}
			}
		}
	}
	JOINT Spine
	{
		OFFSET -0.002533 0.108963 -0.026696
		CHANNELS 3 Zrotation Yrotation Xrotation
		JOINT Spine1
		{
			OFFSET 0.005487 0.135180 0.001092
			CHANNELS 3 Zrotation Yrotation Xrotation
			JOINT Spine2
			{
				OFFSET 0.001457 0.052922 0.025425
				CHANNELS 3 Zrotation Yrotation Xrotation
				JOINT Neck
				{
					OFFSET -0.002778 0.213870 -0.042857
					CHANNELS 3 Zrotation Yrotation Xrotation
					JOINT Head
					{
						OFFSET 0.005152 0.064970 0.051349
						CHANNELS 3 Zrotation Yrotation Xrotation
						End Site
						{
							OFFSET 0.000000 0.000000 0.000000
						}
					}
				}
				JOINT LeftShoulder
				{
					OFFSET 0.078845 0.121749 -0.034090
					CHANNELS 3 Zrotation Yrotation Xrotation
					JOINT LeftArm
					{
						OFFSET 0.090977 0.030469 -0.008868
						CHANNELS 3 Zrotation Yrotation Xrotation
						JOINT LeftForeArm
						{
							OFFSET 0.259612 -0.012772 -0.027456
							CHANNELS 3 Zrotation Yrotation Xrotation
							JOINT LeftHand
							{
								OFFSET 0.249234 0.008986 -0.001171
								CHANNELS 3 Zrotation Yrotation Xrotation
								End Site
								{
									OFFSET 0.000000 0.000000 0.000000
								}
							}
						}
					}
				}
				JOINT RightShoulder
				{
					OFFSET -0.081759 0.118833 -0.038615
					CHANNELS 3 Zrotation Yrotation Xrotation
					JOINT RightArm
					{
						OFFSET -0.096012 0.032551 -0.009143
						CHANNELS 3 Zrotation Yrotation Xrotation
						JOINT RightForeArm
						{
							OFFSET -0.253742 -0.013329 -0.021401
							CHANNELS 3 Zrotation Yrotation Xrotation
							JOINT RightHand
							{
								OFFSET -0.255298 0.007772 -0.005559
								CHANNELS 3 Zrotation Yrotation Xrotation
								End Site
								{
									OFFSET 0.000000 0.000000 0.000000
								}
							}
						}
					}
				}
			}
		}
	}
}
MOTION
Frames: 11
Frame Time: 0.050000
-0.156765 0.914922 -0.032187 3.679077 9.111148 4.912092 11.789648 -0.495492 -13.875123 -5.171125 0.470413 6.568558 3.320300 10.801973 11.550085 0.000000 0.000000 0.000000 -14.765062 -0.728760 -18.347480 10.108385 -1.895711 9.123071 -6.184097 -15.491660 8.091410 0.000000 0.000000 0.000000 8.774421 -6.933885 41.723532 -3.379542 1.549746 -22.997601 -4.361324 6.962186 23.266039 18.065940 -4.520813 -36.518621 0.000000 0.000000 0.000000 -18.177288 -36.045075 15.368681 -28.094506 -50.263033 6.239026 94.281339 -57.134194 -58.259549 0.000000 0.000000 0.000000 23.988501 17.407832 12.760626 30.879083 55.928176 8.993543 -73.464758 38.635016 -21.781222 0.000000 0.000000 0.000000 
-0.174418 0.914377 -0.030024 3.791386 9.515687 4.975466 12.239822 -0.485931 -13.803928 -5.103404 0.452558 6.795026 3.471636 11.290477 12.372875 0.000000 0.000000 0.000000 -13.737069 -0.617992 -18.969893 10.253272 -2.016251 10.042483 -6.527450 -16.158232 7.333411 0.000000 0.000000 0.000000 9.876302 -7.322625 40.967787 -3.756375 1.652626 -22.524483 -4.442055 7.011872 23.418813 18.175006 -4.674710 -35.924651 0.000000 0.000000 0.000000 -18.412064 -36.732976 15.738351 -27.694345 -50.728272 6.201308 96.125979 -56.025629 -58.736550 0.000000 0.000000 0.000000 23.440438 16.739993 12.289064 30.545855 55.226825 8.646325 -75.793406 39.870101 -23.598848 0.000000 0.000000 0.000000 
-0.189188 0.914663 -0.028283 4.055497 9.944645 5.171026 12.131220 -0.517720 -14.180785 -4.874831 0.402981 7.948068 3.779449 11.940909 12.889108 0.000000 0.000000 0.000000 -13.057001 -0.578962 -19.958904 10.390629 -2.224096 11.961140 -6.624523 -16.330723 6.627094 0.000000 0.000000 0.000000 10.787979 -7.739353 40.695928 -3.800719 1.666356 -22.510188 -5.000104 6.764768 23.932650 17.887856 -4.391744 -36.589506 0.000000 0.000000 0.000000 -17.464583 -36.800848 15.595178 -26.351121 -52.772273 6.006200 96.811394 -53.595741 -56.722297 0.000000 0.000000 0.000000 22.351662 16.869786 12.091780 31.486426 55.876134 9.367845 -78.132159 41.209884 -25.545516 0.000000 0.000000 0.000000 
-0.200707 0.915605 -0.026830 4.317023 9.742363 5.628846 12.080684 -0.523905 -13.780926 -5.060178 0.433753 7.962089 4.173208 12.581689 13.182580 0.000000 0.000000 0.000000 -12.502841 -0.504972 -21.049361 10.411090 -2.275127 12.630412 -6.620855 -16.329941 6.592367 0.000000 0.000000 0.000000 10.929570 -7.630721 40.036449 -3.740119 1.649104 -22.373922 -4.965463 6.489288 23.785266 17.510562 -4.384391 -35.930437 0.000000 0.000000 0.000000 -16.949720 -37.088385 15.750184 -24.225475 -53.628828 5.276449 97.796656 -50.767142 -54.455387 0.000000 0.000000 0.000000 22.415218 16.844428 12.016205 32.122432 55.881047 9.660469 -81.165782 44.125934 -29.366012 0.000000 0.000000 0.000000 
-0.209522 0.915409 -0.025842 4.494396 10.349852 5.905319 12.079690 -0.553497 -13.378764 -5.327816 0.462615 7.536736 4.217712 12.819547 13.682603 0.000000 0.000000 0.000000 -12.283391 -0.544294 -21.755798 10.800650 -2.480604 13.403903 -6.881292 -16.809157 6.873982 0.000000 0.000000 0.000000 11.227141 -7.762365 39.550817 -3.486671 1.599127 -22.258554 -5.296025 6.155178 24.048787 17.022469 -4.125437 -36.006083 0.000000 0.000000 0.000000 -15.313599 -37.240432 15.483340 -21.222798 -55.384681 4.159747 98.058188 -48.002325 -51.743631 0.000000 0.000000 0.000000 21.689899 17.265546 12.105022 33.794973 57.017114 10.930350 -84.290284 46.007646 -32.449835 0.000000 0.000000 0.000000 
-0.215711 0.915455 -0.026085 4.550025 10.426340 5.859803 12.129463 -0.547077 -12.309768 -5.029466 0.422086 6.854551 4.201126 12.916338 14.234273 0.000000 0.000000 0.000000 -11.829357 -0.492385 -22.371581 10.727169 -2.531153 14.119287 -7.102503 -17.235753 7.240508 0.000000 0.000000 0.000000 11.164063 -7.674689 39.257462 -3.502055 1.614655 -21.809026 -5.572301 6.062923 23.640437 16.918996 -4.397734 -34.488426 0.000000 0.000000 0.000000 -13.601420 -37.215410 15.085555 -17.923165 -56.038205 2.705386 98.025651 -44.884299 -48.550307 0.000000 0.000000 0.000000 22.026665 17.664211 12.418342 34.639101 58.274252 11.840752 -85.900804 47.439228 -34.635628 0.000000 0.000000 0.000000 
-0.219531 0.914617 -0.027908 4.594626 10.863485 6.147821 12.689216 -0.551048 -12.704791 -5.250038 0.442736 7.128274 3.788912 12.517104 14.921959 0.000000 0.000000 0.000000 -12.103088 -0.637091 -23.375582 11.314356 -2.793501 14.869677 -7.428255 -17.834539 7.556245 0.000000 0.000000 0.000000 10.622696 -7.571225 39.405792 -3.113265 1.519247 -22.162047 -5.671443 6.702400 23.933780 17.114051 -4.181073 -35.336582 0.000000 0.000000 0.000000 -10.720705 -37.746917 14.531682 -13.478509 -57.421117 0.530401 96.747057 -40.457873 -43.319834 0.000000 0.000000 0.000000 21.502194 18.204823 12.875263 35.794832 61.013684 13.648636 -86.768246 46.937192 -34.351123 0.000000 0.000000 0.000000 
-0.221286 0.913984 -0.031180 4.496182 11.006522 6.140633 12.872735 -0.549516 -12.890724 -4.799156 0.374377 7.347030 3.436096 11.972966 14.698412 0.000000 0.000000 0.000000 -12.139315 -0.718175 -24.391114 11.392167 -2.902943 15.657915 -7.697476 -18.337607 7.721282 0.000000 0.000000 0.000000 10.406830 -7.586542 39.741133 -2.931807 1.476267 -22.268729 -5.775956 7.470453 23.958838 17.522797 -4.298942 -35.204403 0.000000 0.000000 0.000000 -9.570818 -38.645275 14.532434 -8.666807 -57.516699 -1.830508 94.603091 -36.783281 -38.450947 0.000000 0.000000 0.000000 21.089349 18.269316 13.028441 36.998219 64.604988 16.045850 -86.853950 46.484248 -33.787367 0.000000 0.000000 0.000000 
-0.221580 0.913722 -0.035208 4.587535 11.611915 6.389584 13.168707 -0.570510 -13.693706 -5.206037 0.411909 8.306246 3.265480 11.810220 14.766084 0.000000 0.000000 0.000000 -12.220224 -0.850723 -25.325135 11.382966 -3.020595 16.423630 -7.526379 -17.928024 7.729810 0.000000 0.000000 0.000000 9.976755 -7.513122 39.723088 -2.834550 1.466784 -21.943943 -6.019832 7.841200 23.604383 17.584479 -4.028354 -36.010968 0.000000 0.000000 0.000000 -8.125981 -39.108244 14.307327 -3.953110 -58.056175 -4.224479 91.041178 -33.016554 -32.863653 0.000000 0.000000 0.000000 20.801712 18.922097 13.552507 35.603717 68.888537 17.284145 -84.195275 43.739513 -29.869431 0.000000 0.000000 0.000000 
-0.220968 0.914836 -0.039113 4.404572 12.575594 5.887249 13.187809 -0.595210 -13.247286 -4.919933 0.344524 8.694581 2.608723 10.748728 14.039073 0.000000 0.000000 0.000000 -11.966207 -0.884495 -25.168365 11.077635 -3.014745 16.608237 -7.714209 -18.170194 8.288153 0.000000 0.000000 0.000000 9.810460 -7.647661 39.982932 -2.983395 1.518610 -22.249171 -5.934577 8.298026 23.787575 17.492651 -3.986630 -35.572853 0.000000 0.000000 0.000000 -7.708858 -40.598878 14.688576 -0.050399 -57.599869 -6.105381 87.201889 -28.930871 -27.385299 0.000000 0.000000 0.000000 19.741001 19.914908 14.010091 32.755271 72.492475 17.205061 -81.116438 39.330628 -24.788576 0.000000 0.000000 0.000000 
-0.219207 0.915739 -0.042742 4.058176 13.538000 5.534414 13.587664 -0.612715 -13.237619 -4.697264 0.292524 8.663214 2.052851 10.111616 14.321646 0.000000 0.000000 0.000000 -11.715019 -0.915845 -25.029083 11.127497 -3.133436 16.904354 -7.787460 -18.209722 8.517430 0.000000 0.000000 0.000000 9.478312 -7.617965 39.812065 -3.175838 1.582294 -22.240511 -6.012604 8.832387 23.793881 17.355957 -3.854662 -35.237861 0.000000 0.000000 0.000000 -6.987803 -41.165735 14.575670 2.932594 -58.068355 -7.780392 83.100291 -26.410734 -23.621790 0.000000 0.000000 0.000000 18.638817 20.800501 14.406481 25.349989 75.790289 13.396293 -76.053725 33.902036 -18.828346 0.000000 0.000000 0.000000 
